<svg width="98" height="96" viewBox="0 0 98 96" fill="none" xmlns="http://www.w3.org/2000/svg">
<g filter="url(#filter0_d_5536_16613)">
<path fill-rule="evenodd" clip-rule="evenodd" d="M86.4351 38.0067L86.4351 26.1361L51.8607 6.17459L30.4763 18.5144L35.2648 21.2791L65.0565 38.4793L65.0564 50.3498L68.2495 48.5054L68.2496 36.6349L36.8675 18.5165L51.86 9.8621L83.242 27.9805L83.242 39.8511L86.4351 38.0067Z" fill="url(#paint0_linear_5536_16613)"/>
<path fill-rule="evenodd" clip-rule="evenodd" d="M27.5668 20.2L17.2866 26.1353L17.2871 66.0575L38.6599 78.3971L38.663 72.8823L38.6594 38.4749L48.9453 32.5429L45.7472 30.6965L35.467 36.6318L35.4649 72.8722L20.4769 64.2189L20.479 27.9784L30.7591 22.0431L27.5668 20.2Z" fill="url(#paint1_linear_5536_16613)"/>
<path fill-rule="evenodd" clip-rule="evenodd" d="M41.5757 80.0808L51.8616 86.0193L86.4355 66.0586L86.4323 41.3784L81.6522 44.1351L51.8584 61.339L41.5783 55.4038L41.5775 59.0913L51.8577 65.0265L83.2385 46.9103L83.2431 64.2155L51.859 82.3376L41.5764 76.3932L41.5757 80.0808Z" fill="url(#paint2_linear_5536_16613)"/>
</g>
<defs>
<filter id="filter0_d_5536_16613" x="13.2866" y="6.17456" width="77.1489" height="87.8447" filterUnits="userSpaceOnUse" color-interpolation-filters="sRGB">
<feFlood flood-opacity="0" result="BackgroundImageFix"/>
<feColorMatrix in="SourceAlpha" type="matrix" values="0 0 0 0 0 0 0 0 0 0 0 0 0 0 0 0 0 0 127 0" result="hardAlpha"/>
<feOffset dy="4"/>
<feGaussianBlur stdDeviation="2"/>
<feComposite in2="hardAlpha" operator="out"/>
<feColorMatrix type="matrix" values="0 0 0 0 0 0 0 0 0 0 0 0 0 0 0 0 0 0 0.25 0"/>
<feBlend mode="normal" in2="BackgroundImageFix" result="effect1_dropShadow_5536_16613"/>
<feBlend mode="normal" in="SourceGraphic" in2="effect1_dropShadow_5536_16613" result="shape"/>
</filter>
<linearGradient id="paint0_linear_5536_16613" x1="51.2224" y1="45.7641" x2="51.2224" y2="9.16795" gradientUnits="userSpaceOnUse">
<stop stop-color="#131333"/>
<stop offset="1" stop-color="#55A6FF"/>
</linearGradient>
<linearGradient id="paint1_linear_5536_16613" x1="27.9338" y1="60.0699" x2="52.8857" y2="44.7661" gradientUnits="userSpaceOnUse">
<stop stop-color="#5756D9"/>
<stop offset="1" stop-color="#131333"/>
</linearGradient>
<linearGradient id="paint2_linear_5536_16613" x1="90.0579" y1="65.1075" x2="51.8877" y2="45.7644" gradientUnits="userSpaceOnUse">
<stop stop-color="#FF62BD"/>
<stop offset="1" stop-color="#131333"/>
</linearGradient>
</defs>
</svg>
